<?xml version="1.0" encoding="UTF-8" standalone="no"?>
<!-- Uploaded to: SVG Repo, www.svgrepo.com, Generator: SVG Repo Mixer Tools -->

<svg
   width="950"
   height="950"
   viewBox="0 0 28.5 28.5"
   fill="none"
   version="1.1"
   id="svg365"
   sodipodi:docname="AceCharacter.svg"
   xml:space="preserve"
   inkscape:version="1.2.1 (9c6d41e410, 2022-07-14)"
   xmlns:inkscape="http://www.inkscape.org/namespaces/inkscape"
   xmlns:sodipodi="http://sodipodi.sourceforge.net/DTD/sodipodi-0.dtd"
   xmlns="http://www.w3.org/2000/svg"
   xmlns:svg="http://www.w3.org/2000/svg"><defs
     id="defs369" /><sodipodi:namedview
     id="namedview367"
     pagecolor="#ffffff"
     bordercolor="#000000"
     borderopacity="0.25"
     inkscape:showpageshadow="2"
     inkscape:pageopacity="0.0"
     inkscape:pagecheckerboard="0"
     inkscape:deskcolor="#d1d1d1"
     showgrid="false"
     inkscape:zoom="0.295"
     inkscape:cx="310.16949"
     inkscape:cy="554.23729"
     inkscape:window-width="1728"
     inkscape:window-height="1010"
     inkscape:window-x="1913"
     inkscape:window-y="-6"
     inkscape:window-maximized="1"
     inkscape:current-layer="layer1" /><path
     d="m 22.886446,10.596337 c 1.3807,0 2.5,-1.1192898 2.5,-2.4999998 0,-1.38071 -1.1193,-2.5 -2.5,-2.5 -1.3807,0 -2.5,1.11929 -2.5,2.5 0,1.38071 1.1193,2.4999998 2.5,2.4999998 z"
     fill="#0f0f0f"
     id="path361"
     style="display:none" /><path
     d="M 10.868605,5.1287184 8.0783236,6.6505687 c -0.4912244,0.267912 -0.646131,0.7110366 -0.646131,1.1870804 0,0.9422743 1.1877124,1.5167276 2.1033625,1.0173262 L 12.131764,7.4389485 c 0.481711,-0.2627292 1.09911,-0.2398515 1.553465,0.057585 l 1.995443,1.3059561 -5.096721,4.4476834 c -0.267719,0.233576 -0.512863,0.486108 -0.7329327,0.754955 L 7.3581489,17.050747 C 6.996398,17.492709 6.3395302,17.667383 5.7567752,17.476753 L 2.2220127,16.320025 c -0.5717296,-0.18715 -1.2157984,-0.0059 -1.55449473,0.437523 -0.42797244,0.560248 -0.21327823,1.320123 0.46404563,1.642477 l 3.3986626,1.617765 c 1.6958875,0.807262 3.8066325,0.47903 5.0787129,-0.789629 l 2.6348659,-2.627771 2.474682,3.023305 c 0.591967,0.723286 0.677339,1.672709 0.221885,2.467616 l -2.389171,4.169837 c -0.456967,0.797665 0.207585,1.736173 1.229572,1.736173 0.647092,0 1.269853,-0.09994 1.592507,-0.663181 l 2.7099,-4.729486 c 0.642419,-1.121459 0.569969,-2.45382 -0.191502,-3.517094 l -2.211006,-3.087009 4.12424,-3.599031 1.886427,1.097465 c 1.696987,0.987333 3.575579,0.912713 5.422001,0.375619 0.639396,-0.18595 0.940052,-0.699651 0.940052,-1.256541 0,-0.741378 -0.762847,-1.305273 -1.600755,-1.183399 -0.948989,0.138011 -2.322497,0.600812 -3.024991,-0.216433 C 21.13223,8.5473299 18.423017,6.6662605 15.057362,5.0345679 13.745441,4.398559 12.14125,4.4346215 10.868605,5.1287184 Z"
     fill="#0F0F0F"
     id="path363"
     style="fill:#fc7f7f;fill-opacity:1;stroke-width:1.28423" /><g
     inkscape:groupmode="layer"
     id="layer1"
     inkscape:label="Spade"
     style="fill:#fc7f7f;fill-opacity:1"
     transform="matrix(1.3747466,0,0,1.1996771,-2.1910341,0.40475046)"><path
       fill="#040606"
       d="M 20.735279,2.7700984 C 19.410742,1.624039 18.540013,0.42574879 18.35357,0.08162891 18.167722,0.42574879 17.296994,1.624039 15.972455,2.7700984 c -0.882828,0.8337399 -0.987751,1.9277461 -0.197154,2.6044381 0.7545,0.6670986 1.660732,0.1984417 2.183961,-0.1666414 -0.01206,0.2398357 -0.104928,0.9483281 -0.83681,1.6257303 H 19.60849 C 18.864702,6.1562232 18.772471,5.4368938 18.772471,5.2078951 c 0.511331,0.3650831 1.416769,0.83374 2.183962,0.1666414 0.766597,-0.676692 0.662269,-1.7815352 -0.221154,-2.6044381"
       fill-opacity="1"
       fill-rule="nonzero"
       id="path551"
       style="fill:#fc7f7f;fill-opacity:1;stroke-width:0.0480551" /></g></svg>
