<?xml version="1.0" encoding="UTF-8" standalone="no"?>
<!-- Uploaded to: SVG Repo, www.svgrepo.com, Generator: SVG Repo Mixer Tools -->

<svg
   width="800px"
   height="800px"
   viewBox="0 0 20 20"
   version="1.1"
   id="svg351"
   sodipodi:docname="AceCharacterInput.svg"
   xml:space="preserve"
   inkscape:version="1.2.1 (9c6d41e410, 2022-07-14)"
   xmlns:inkscape="http://www.inkscape.org/namespaces/inkscape"
   xmlns:sodipodi="http://sodipodi.sourceforge.net/DTD/sodipodi-0.dtd"
   xmlns="http://www.w3.org/2000/svg"
   xmlns:svg="http://www.w3.org/2000/svg"><sodipodi:namedview
     id="namedview353"
     pagecolor="#ffffff"
     bordercolor="#000000"
     borderopacity="0.25"
     inkscape:showpageshadow="2"
     inkscape:pageopacity="0.0"
     inkscape:pagecheckerboard="0"
     inkscape:deskcolor="#d1d1d1"
     showgrid="false"
     inkscape:zoom="0.295"
     inkscape:cx="174.57627"
     inkscape:cy="401.69492"
     inkscape:window-width="1920"
     inkscape:window-height="1010"
     inkscape:window-x="-6"
     inkscape:window-y="463"
     inkscape:window-maximized="1"
     inkscape:current-layer="svg351" /><title
     id="title341">game_controller [#796]</title><desc
     id="desc343">Created with Sketch.</desc><defs
     id="defs345" /><path
     d="m 86,4577 h 16 v -8 H 86 Z m 18,-10 v 2 8 2 h -2 -16 -2 v -2 -8 -2 h 2 7 v -4 -2 h 5 v -2 h 2 v 2 2 h -5 v 4 h 7 z m -6,7 h 2 v -2 h -2 z m -10,-2 h 1 v -1 h 2 v 1 h 1 v 2 h -1 v 1 h -2 v -1 h -1 z"
     id="game_controller-[#796]"
     transform="translate(-84,-4559)"
     sodipodi:nodetypes="cccccccccccccccccccccccccccccccccccccccccccccc"
     style="fill:#fc7f7f;fill-opacity:1" /><path
     fill="#040606"
     d="m 12.225237,13.395173 c -0.743396,-0.768052 -1.232092,-1.571107 -1.336732,-1.801725 -0.104308,0.230618 -0.593003,1.033673 -1.3363988,1.801725 -0.4954868,0.558745 -0.554375,1.291912 -0.1106522,1.74541 0.4234615,0.447067 0.932083,0.132989 1.225746,-0.111677 -0.0068,0.160729 -0.05889,0.635538 -0.469659,1.089511 h 1.395286 c -0.41745,-0.453973 -0.469214,-0.936044 -0.469214,-1.089511 0.286983,0.244666 0.79516,0.558744 1.225747,0.111677 0.430252,-0.453498 0.371697,-1.193927 -0.124123,-1.74541"
     fill-opacity="1"
     fill-rule="nonzero"
     id="path481"
     style="stroke-width:0.0294719;fill:#fc7f7f;fill-opacity:1" /></svg>
